<svg width="40" height="40" viewBox="0 0 40 40" fill="none" xmlns="http://www.w3.org/2000/svg">
<path d="M17.3833 30.6164C17.1333 30.6164 16.9 30.5497 16.6833 30.3997C16.3333 30.1664 16.1333 29.783 16.1333 29.3664C16.1333 29.1164 16.1166 28.8497 16.0833 28.583C15.9333 27.3997 15.4 26.3664 14.5 25.4664C13.6 24.5664 12.4833 23.9997 11.2833 23.8497C11.0833 23.833 10.8 23.8164 10.5333 23.833C10.1 23.8664 9.69997 23.683 9.44997 23.333C9.19997 22.9997 9.1333 22.5497 9.26664 22.1497C9.51664 21.4664 9.8833 20.8497 10.3166 20.3497L12.8833 17.1164C17.3 11.5997 26.25 4.96637 32.8 2.33304C34.1833 1.79971 35.6666 2.11637 36.6833 3.11637C37.7333 4.16637 38.05 5.66637 37.5 7.03304C34.8666 13.5997 28.25 22.533 22.7333 26.9497L19.45 29.583C18.8333 30.033 18.3333 30.3164 17.8333 30.5164C17.7 30.583 17.5333 30.6164 17.3833 30.6164ZM12.5666 21.5664C13.9666 21.933 15.2166 22.6664 16.2666 23.7164C17.3166 24.7497 18.0166 25.9497 18.3666 27.283L21.1833 25.0164C26.4166 20.833 32.7 12.3497 35.1833 6.11637C35.4333 5.49971 35.0833 5.06637 34.9166 4.91637C34.8 4.79971 34.3666 4.43304 33.7 4.68304C27.5 7.18304 19.0166 13.4664 14.8166 18.6997L12.5666 21.5664Z" fill="#0080FF"/>
<path d="M6.79994 37.9166C5.54994 37.9166 4.34994 37.4166 3.44994 36.5166C2.41661 35.4833 1.91661 34.0499 2.08327 32.5833L2.53327 28.4833C2.96661 24.4166 6.29994 21.3999 10.4333 21.3166C10.7499 21.2999 11.1666 21.3166 11.5499 21.3499C13.3666 21.5833 14.9833 22.3999 16.2833 23.6999C17.5666 24.9833 18.3333 26.5166 18.5666 28.2333C18.6166 28.5999 18.6499 28.9999 18.6499 29.3499C18.6499 31.5499 17.7999 33.5999 16.2666 35.1499C14.9833 36.4166 13.3333 37.1999 11.4666 37.4333L7.34994 37.8833C7.16661 37.8999 6.98327 37.9166 6.79994 37.9166ZM10.7499 23.8333C10.6833 23.8333 10.5999 23.8333 10.5333 23.8333C8.01661 23.8833 5.34994 25.5999 5.01661 28.7666L4.56661 32.8666C4.48327 33.5666 4.73327 34.2499 5.21661 34.7499C5.69994 35.2333 6.38327 35.4833 7.06661 35.3999L11.1666 34.9499C12.4499 34.7833 13.5999 34.2499 14.4666 33.3833C15.5333 32.3166 16.1333 30.8833 16.1333 29.3499C16.1333 29.0999 16.1166 28.8333 16.0833 28.5666C15.9333 27.3833 15.3999 26.3499 14.4999 25.4499C13.5999 24.5499 12.4833 23.9833 11.2833 23.8333C11.1499 23.8333 10.9499 23.8333 10.7499 23.8333Z" fill="#0080FF"/>
<path d="M23.7334 25.3672C23.0501 25.3672 22.4834 24.8006 22.4834 24.1172C22.4834 20.4506 19.5001 17.4839 15.8501 17.4839C15.1668 17.4839 14.6001 16.9172 14.6001 16.2339C14.6001 15.5506 15.1501 14.9839 15.8334 14.9839C20.8668 14.9839 24.9668 19.0839 24.9668 24.1172C24.9834 24.8172 24.4168 25.3672 23.7334 25.3672Z" fill="#0080FF"/>
</svg>
