<svg width="45" height="45" viewBox="0 0 45 45" fill="none" xmlns="http://www.w3.org/2000/svg">
<circle cx="22.5" cy="22.5" r="21.5" stroke="#0080FF" stroke-width="2"/>
<path d="M18.3619 31.13C18.3619 31.2334 18.246 31.3161 18.0998 31.3161C17.9335 31.3316 17.8175 31.2489 17.8175 31.13C17.8175 31.0266 17.9335 30.9439 18.0796 30.9439C18.2308 30.9284 18.3619 31.0111 18.3619 31.13ZM16.7944 30.8973C16.7591 31.0007 16.8599 31.1196 17.0111 31.1506C17.1421 31.2023 17.2933 31.1506 17.3236 31.0472C17.3538 30.9439 17.2581 30.825 17.1069 30.7784C16.9758 30.7423 16.8296 30.7939 16.7944 30.8973ZM19.0222 30.8095C18.876 30.8456 18.7752 30.9439 18.7903 31.0628C18.8054 31.1661 18.9365 31.2334 19.0877 31.1972C19.2339 31.161 19.3347 31.0628 19.3196 30.9594C19.3044 30.8611 19.1683 30.7939 19.0222 30.8095ZM22.3387 11C15.3478 11 10 16.4435 10 23.6135C10 29.3465 13.5181 34.2523 18.5433 35.9789C19.1885 36.0978 19.4153 35.6894 19.4153 35.3534C19.4153 35.0329 19.4002 33.265 19.4002 32.1794C19.4002 32.1794 15.872 32.9548 15.131 30.6389C15.131 30.6389 14.5565 29.1345 13.7298 28.7468C13.7298 28.7468 12.5756 27.9352 13.8105 27.9507C13.8105 27.9507 15.0655 28.0541 15.756 29.2845C16.8599 31.2799 18.7097 30.7061 19.4304 30.3649C19.5464 29.5378 19.874 28.9639 20.2369 28.6228C17.4194 28.3023 14.5766 27.8835 14.5766 22.9105C14.5766 21.4889 14.9597 20.7755 15.7661 19.8657C15.6351 19.5296 15.2067 18.1442 15.8972 16.3556C16.9506 16.0196 19.375 17.7513 19.375 17.7513C20.3831 17.4619 21.4667 17.3119 22.5403 17.3119C23.6139 17.3119 24.6976 17.4619 25.7056 17.7513C25.7056 17.7513 28.13 16.0144 29.1835 16.3556C29.874 18.1494 29.4456 19.5296 29.3145 19.8657C30.121 20.7807 30.6149 21.494 30.6149 22.9105C30.6149 27.899 27.6462 28.2971 24.8286 28.6228C25.2923 29.0312 25.6855 29.8066 25.6855 31.0214C25.6855 32.7635 25.6704 34.9192 25.6704 35.3431C25.6704 35.6791 25.9022 36.0875 26.5423 35.9686C31.5827 34.2523 35 29.3465 35 23.6135C35 16.4435 29.3296 11 22.3387 11ZM14.8992 28.8295C14.8337 28.8812 14.8488 29.0001 14.9345 29.0984C15.0151 29.1811 15.131 29.2173 15.1966 29.1501C15.2621 29.0984 15.247 28.9795 15.1613 28.8812C15.0806 28.7985 14.9647 28.7623 14.8992 28.8295ZM14.3548 28.4108C14.3196 28.478 14.37 28.5607 14.4708 28.6124C14.5514 28.6641 14.6522 28.6486 14.6875 28.5762C14.7228 28.509 14.6724 28.4263 14.5716 28.3746C14.4708 28.3436 14.3901 28.3591 14.3548 28.4108ZM15.9879 30.2511C15.9073 30.3184 15.9375 30.4734 16.0534 30.5717C16.1694 30.6906 16.3155 30.7061 16.381 30.6234C16.4466 30.5561 16.4163 30.4011 16.3155 30.3028C16.2046 30.1839 16.0534 30.1684 15.9879 30.2511ZM15.4133 29.4912C15.3327 29.5429 15.3327 29.6773 15.4133 29.7962C15.494 29.9151 15.63 29.9668 15.6956 29.9151C15.7762 29.8479 15.7762 29.7135 15.6956 29.5946C15.625 29.4757 15.494 29.424 15.4133 29.4912Z" fill="#0080FF"/>
</svg>
